# xmcd
#
# Track frame offsets:
#	150
#	14327
#	34782
#	46055
#	59232
#	72062
#	84652
#	97695
#	109937
#	124470
#	137325
#	153715
#
# Disc length: 2215 seconds
#
# Revision: 3
# Processed by: cddbd v1.5.2PL0 Copyright (c) Steve Scherf et al.
# Submitted via: audiograbber 1.83.01
#
DISCID=9f08a50c
DTITLE=Merle Haggard - The Best Of Merle Haggard
DYEAR=2000
DGENRE=Country
TTITLE0=Ramblin' Fever
TTITLE1=I Think I'll Just Stay Here And Drink
TTITLE2=From Graceland To The Promised Land
TTITLE3=My Own Kind Of Hat
TTITLE4=I'm Always On A Mountain When I Fall
TTITLE5=It's Been A Great Afternoon
TTITLE6=The Way I Am
TTITLE7=The Bull and The Beaver
TTITLE8=If We're Not Back In Love By Monday
TTITLE9=Misery And Gin
TTITLE10=Leonard
TTITLE11=Rainbow Stew
EXTD=MCA Nashvillle. CD 088 112 110-2. 20th Century Masters. The Millennium Col
EXTD=lection. Made in USA.
EXTT0=
EXTT1=
EXTT2=
EXTT3=
EXTT4=
EXTT5=
EXTT6=
EXTT7=
EXTT8=
EXTT9=
EXTT10=
EXTT11=
PLAYORDER=
